<?xml version="1.0" encoding="UTF-8"?><svg id="Layer_2" xmlns="http://www.w3.org/2000/svg" viewBox="0 0 100 100"><path d="M78.99805,26.53125l-6.83984,8.52637-5.40137-4.33301,6.95801-8.67383-.62109-.25293c-5.34766-2.17236-11.60156-.54346-15.20996,3.95703-3.55859,4.43506-3.83496,10.73926-.72168,15.46729l-4.19592,4.81-8.88403-11.13525.99695-.79535-1.47021-6.74316c1.5415-1.08398,3.40186-1.61719,5.2832-1.49512l5.62158.2915.87695-2.30957-.28516-.22754c-5.36279-4.27393-15.66162-3.17871-16.09912-3.13232l-.14307.01611-9.92871,7.92139.03857,3.82568-2.32855,1.85773-.91949-1.15265c-.78711-.98584-2.22949-1.14941-3.21582-.36133l-2.94727,2.35107c-.98584.78662-1.14844,2.229-.36133,3.21582l5.64014,7.07031c.45117.56543,1.11816.85986,1.79102.85986.50049,0,1.00391-.1626,1.4248-.49854l2.94727-2.35107c.98584-.78662,1.14844-2.229.36133-3.21582l-.79065-.99115,2.22522-1.77496,5.26709,2.43799,1.03137-.82281,9.60767,12.04285-16.78064,19.23651c-2.03027,2.32812-1.94775,5.88574.18408,7.93164,1.06201,1.01953,2.46826,1.58301,3.91895,1.58301.15918,0,.31885-.00684.47852-.02051,1.61768-.13867,3.09717-.96777,4.05957-2.27344l13.26495-18.00793,16.15399,20.24915,6.95898-5.55273-17.64636-22.11768,4.17078-5.66211c5.29004,2.01221,11.38477.37598,14.94238-4.05811,3.45312-4.30371,3.83789-10.36523.95801-15.08398l-.37109-.6084ZM30.37988,42.45752l-2.94727,2.35156c-.26855.21484-.60107.31104-.94727.27344-.3418-.03857-.64795-.20801-.86279-.47705l-5.64014-7.07031c-.44287-.55518-.35156-1.36719.20361-1.81006l2.94727-2.35107c.23682-.18896.52002-.28076.80176-.28076.37891,0,.75391.16602,1.0083.48438l5.64014,7.07031c.44287.55518.35156,1.36719-.20361,1.80957ZM37.92627,38.52881l-5.26709-2.43799-2.70801,2.16016-1.28564-1.61133-1.39728-1.75159,2.70978-2.16199-.03857-3.82568,9.31885-7.43506c1.22803-.11279,10.1416-.7959,14.93604,2.71436l-.35645.93896-4.88867-.25391c-2.21875-.13867-4.42188.53027-6.20068,1.88428l-.25342.19336,1.47461,6.76465-5.3938,4.30347-.10132.08081h0l-.54834.4375ZM39.87988,38.24951l1.19183-.95093,2.22864-1.77795,8.99774,11.2774-2.92407,3.35193-9.49414-11.90045ZM75.53809,73.90332l-5.39453,4.30469-15.69849-19.67603,4.2392-5.755,16.85382,21.12634ZM77.63184,41.59766c-3.36328,4.19189-9.18066,5.68115-14.14453,3.61475l-.3623-.15039-23.36328,31.71729c-.79199,1.0752-2.00928,1.75684-3.34033,1.87109-1.3252.11035-2.64893-.35449-3.61963-1.28711-1.75244-1.68262-1.80762-4.62207-.12256-6.55273l25.74854-29.51709-.22559-.3208c-3.0918-4.39893-2.90234-10.39941.46094-14.5918,2.34766-2.92578,5.90332-4.53711,9.52539-4.53711,1.30664,0,2.62402.20996,3.89453.64404l-6.73242,8.39111,6.96191,5.58496,6.55957-8.17773c2.26465,4.25977,1.79883,9.52344-1.24023,13.31152Z"/><path d="M36.90576,70.19434c-1.52832,0-2.77148,1.24316-2.77148,2.77148,0,1.52734,1.24316,2.77051,2.77148,2.77051s2.77148-1.24316,2.77148-2.77051c0-1.52832-1.24316-2.77148-2.77148-2.77148ZM36.90576,74.73633c-.97656,0-1.77148-.79395-1.77148-1.77051s.79492-1.77148,1.77148-1.77148,1.77148.79492,1.77148,1.77148-.79492,1.77051-1.77148,1.77051Z"/></svg>