<?xml version="1.0" encoding="UTF-8"?><svg id="Layer_2" xmlns="http://www.w3.org/2000/svg" viewBox="0 0 100 100"><path d="M72.87402,54.72266l14.76074-14.76074-19.19043-19.18994-6.78125,6.78125-6.75488-1.34912c-1.81482-.36298-3.66431-.0152-5.20197.92822l.15704-.30078c-1.46191-.76172-3.15625-1.00342-4.77148-.68066l-6.75488,1.34912-6.78125-6.78174-19.19043,19.18945,12.12451,12.15247-2.85596,2.85681c-.83691.83594-1.29688,1.94727-1.29688,3.13086,0,1.18262.45996,2.29395,1.29688,3.13086.83594.83691,1.94727,1.29688,3.13086,1.29688.16504,0,.32428-.02972.48602-.04742-1.41699,1.73761-1.33636,4.29767.28253,5.91656.86328.86328,1.99707,1.29492,3.13086,1.29492.34247,0,.68188-.05261,1.01678-.13123-.63654,1.59528-.31207,3.48828.97736,4.77771.86328.86328,1.99707,1.29492,3.13086,1.29492s2.26758-.43164,3.13086-1.29492l.05756-.05756c-.11975,1.26917.2851,2.57892,1.25494,3.54877.86328.86328,1.99707,1.29492,3.13086,1.29492s2.26758-.43164,3.13086-1.29492l2.85645-2.85559,2.4375,2.43665c.9873.93848,2.05566,1.32031,3.06641,1.32031,1.21875,0,2.35254-.55566,3.15625-1.35938.87054-.87054,1.44421-2.12842,1.3407-3.46301l.42981.42981c.86328.86328,1.99707,1.29492,3.13086,1.29492s2.26758-.43164,3.13086-1.29492c1.01807-1.01807,1.41943-2.41119,1.23688-3.73828.69745.43884,1.50104.68262,2.34613.68262,1.18262,0,2.29492-.45996,3.13086-1.29688,1.72656-1.72656,1.72656-4.53516,0-6.26172l-.19299-.19305c.1062.00848.21381.03094.31897.03094,1.21875,0,2.35254-.55566,3.15625-1.35938,1.4707-1.4707,2.11035-4.04492.02832-6.23438l-1.19336-1.19336ZM54.71289,27.18457l7.27832,1.45361,6.45312-6.45215,17.77637,17.77588-14.05371,14.05371c-3.23096-3.23059-9.87848-9.87823-14.388-14.38788,1.23224.48651,2.53363.77625,3.8587.84442.2041.01074.40723.01562.60938.01562,3.08496,0,5.9873-1.21143,8.22949-3.44922l-.70703-.70801c-2.18555,2.18262-5.05566,3.30762-8.08008,3.14307-2.42065-.12433-4.75763-1.05505-6.68195-2.61743-1.13739-1.13739-1.83661-1.83667-1.83661-1.83667l-.3584-.3584-6.83594,7.02295c-1.69141,1.6084-3.6875,1.11719-4.82715-.02197-1.1377-1.13818-1.62988-3.13379-.03027-4.81738l7.95117-7.95068c1.48047-1.48096,3.58984-2.11914,5.64258-1.70947ZM22.34082,60.47168c-.64746-.64746-1.00391-1.50879-1.00391-2.42383,0-.91602.35645-1.77637,1.00391-2.42383l3.2002-3.20117c.76855-.73145,1.60059-1.02832,2.38574-1.02832.94336,0,1.81934.42871,2.44141,1.0498,1.10944,1.11041,1.58997,3.03424.13055,4.68951-.04077.03668-.08221.06781-.12274.10638l-3.4184,3.41772c-1.31824,1.09058-3.39276,1.0368-4.61676-.18628ZM26.24023,67.6377c-.64746-.64746-1.00391-1.50879-1.00391-2.4248,0-.91504.35645-1.77637,1.00391-2.42383l1.40356-1.40332c.08246-.07135.17383-.12909.25171-.20703l3.21875-3.21875c.03662-.03851.06604-.07794.10095-.1167.72906-.63892,1.50586-.91553,2.24475-.91553.94238,0,1.81934.42871,2.44043,1.0498,1.11035,1.11035,1.59088,3.03333.13068,4.68939-.04047.03644-.08167.06726-.12189.10553l-5.05261,5.05261c-1.31842,1.08936-3.39276,1.03528-4.61633-.18738ZM36.21289,73.5791c-1.29492,1.29492-3.55273,1.29492-4.84766,0-.64746-.64746-1.00391-1.50879-1.00391-2.42383,0-.91602.35645-1.77734,1.00391-2.4248l.18604-.18604c.08008-.0694.16858-.12366.24463-.19971l4.85059-4.85156c.0368-.0387.06635-.07831.10144-.11725.72925-.63849,1.50616-.91595,2.24426-.91595.94336,0,1.82031.42871,2.44141,1.05078,1.10974,1.10876,1.59003,3.03088.13293,4.68646-.04156.03741-.0838.06915-.12512.10846l-3.20898,3.20996c-.0744.0744-.12738.16107-.19537.23932l-1.82416,1.82416ZM43.78711,77.07031c-1.33594,1.33594-3.51172,1.33594-4.84766,0-1.26245-1.26245-1.31726-3.26263-.19543-4.60828l3.43567-3.43567c.0376-.03955.06781-.08002.10364-.11981.72845-.63721,1.505-.91339,2.24207-.91339.94336,0,1.82031.42871,2.44141,1.05078,1.13867,1.1377,1.63086,3.13379.03027,4.81738l-3.20996,3.20898ZM73.33203,61.44336c-1.09125,1.09222-2.97284,1.57166-4.61145.19202l-4.98425-4.98499-.02246.02246-.24512-.24512-.70703.70703,5.05469,5.05469c.07214.0686.14734.11334.22028.17603l2.01312,2.01343c1.33691,1.33691,1.33691,3.51074,0,4.84766-1.2959,1.2959-3.55371,1.29395-4.84766,0l-.96326-.96307c-.06818-.07849-.12128-.16541-.19592-.24005l-7.51465-7.51465-.70703.70703,1.6748,1.6748-.02246.02246,6.05823,6.05737c1.12134,1.34564,1.06635,3.34637-.19592,4.60864-1.33594,1.33594-3.51172,1.33594-4.84766,0l-2.16357-2.16357c-.08978-.10986-.18085-.21948-.28369-.32764l-5.0459-5.0459-.70703.70703.00049.00049-.02197.02197,5.21985,5.21985c1.38757,1.64575.91077,3.52747-.18274,4.62097-1.13867,1.1377-3.13477,1.62891-4.81738.03027l-2.45355-2.4527c1.67426-2.09338,1.02942-4.46552-.35895-5.85297-1.0647-1.06616-2.71075-1.68994-4.36792-1.16498.5246-1.65558-.09869-3.30261-1.16528-4.3692-1.06543-1.06616-2.71173-1.68744-4.36823-1.16248.52521-1.65576-.09814-3.30365-1.16498-4.36975-1.06488-1.06488-2.71069-1.68884-4.36774-1.1637.52466-1.65546-.09845-3.3028-1.16449-4.36951-1.38745-1.38605-3.75531-2.03241-5.85321-.35883l-11.44269-11.46979,17.77637-17.77637,6.45312,6.45264,7.27832-1.45361c1.27277-.25269,2.59192-.08301,3.77161.44446-.24249.18774-.47534.39087-.69543.61121l-7.95996,7.95947c-2.07031,2.17822-1.43164,4.75244.03906,6.22266,1.47168,1.4707,4.04492,2.11035,6.2373.02588l6.12439-6.29138c.47955.54126.98694,1.05035,1.53644,1.49957l15.75616,15.75616c2.02734,2.02734,2.88086,2.88086,3.2998,3.21582l-.04297.04102c1.60938,1.69238,1.11719,3.68848-.02148,4.82715Z"/></svg>